ffmpeg started on 2016-11-26 at 08:55:23
Report written to "Output/NVENCh264/results/ffmpeg/sintelll1500k.log"
Command line:
Tools/ffmpeg/ffmpeg -benchmark -y -i Input/y4m/sintel.y4m -c:v h264_nvenc -preset ll -b:v 1500k -an Output/NVENCh264/encoded/sintelll1500k.mkv
ffmpeg version N-82227-gdb23fde Copyright (c) 2000-2016 the FFmpeg developers
  built with gcc 5.4.0 (Ubuntu 5.4.0-6ubuntu1~16.04.2) 20160609
  configuration: --prefix=/home/jaroslav/ffmpeg_build --pkg-config-flags=--static --extra-cflags=-I/home/jaroslav/ffmpeg_build/include --extra-ldflags=-L/home/jaroslav/ffmpeg_build/lib --bindir=/home/jaroslav/bin --enable-gpl --enable-libass --enable-libfdk-aac --enable-libfreetype --enable-libmp3lame --enable-libopus --enable-libtheora --enable-libvorbis --enable-libvpx --enable-libx264 --enable-libx265 --enable-nvenc --enable-libmfx --enable-libxvid --enable-libgsm --enable-libopencore-amrnb --enable-version3 --enable-nonfree
  libavutil      55. 35.100 / 55. 35.100
  libavcodec     57. 66.101 / 57. 66.101
  libavformat    57. 57.100 / 57. 57.100
  libavdevice    57.  2.100 / 57.  2.100
  libavfilter     6. 66.100 /  6. 66.100
  libswscale      4.  3.100 /  4.  3.100
  libswresample   2.  4.100 /  2.  4.100
  libpostproc    54.  2.100 / 54.  2.100
Input #0, yuv4mpegpipe, from 'Input/y4m/sintel.y4m':
  Duration: 00:00:20.83, start: 0.000000, bitrate: 2057307 kb/s
    Stream #0:0: Video: rawvideo (I420 / 0x30323449), yuv420p(progressive), 4096x1744, SAR 1:1 DAR 256:109, 24 fps, 24 tbr, 24 tbn, 24 tbc
[h264_nvenc @ 0x37a91c0] The variable bitrate rate-control requires the 'qmin' and/or 'qmax' option set.
Output #0, matroska, to 'Output/NVENCh264/encoded/sintelll1500k.mkv':
  Metadata:
    encoder         : Lavf57.57.100
    Stream #0:0: Video: h264 (h264_nvenc) (Main) (H264 / 0x34363248), yuv420p, 4096x1744 [SAR 1:1 DAR 256:109], q=-1--1, 1500 kb/s, 24 fps, 1k tbn, 24 tbc
    Metadata:
      encoder         : Lavc57.66.101 h264_nvenc
    Side data:
      cpb: bitrate max/min/avg: 0/0/1500000 buffer size: 3000000 vbv_delay: -1
Stream mapping:
  Stream #0:0 -> #0:0 (rawvideo (native) -> h264 (h264_nvenc))
Press [q] to stop, [?] for help
frame=   17 fps=0.0 q=0.0 size=       0kB time=00:00:00.00 bitrate=N/A speed=   0x    frame=   38 fps= 38 q=49.0 size=       1kB time=00:00:00.29 bitrate=  20.3kbits/s speed=0.29x    frame=   59 fps= 39 q=49.0 size=       1kB time=00:00:01.16 bitrate=   5.1kbits/s speed=0.768x    frame=   80 fps= 39 q=49.0 size=       1kB time=00:00:02.04 bitrate=   2.9kbits/s speed=1.01x    frame=  101 fps= 40 q=49.0 size=       1kB time=00:00:02.91 bitrate=   2.0kbits/s speed=1.15x    frame=  117 fps= 36 q=49.0 size=       1kB time=00:00:03.58 bitrate=   1.7kbits/s speed=1.09x    frame=  124 fps= 33 q=49.0 size=       1kB time=00:00:03.87 bitrate=   1.5kbits/s speed=1.02x    frame=  131 fps= 28 q=49.0 size=       1kB time=00:00:04.16 bitrate=   1.4kbits/s speed=0.892x    frame=  132 fps= 16 q=49.0 size=       1kB time=00:00:04.20 bitrate=   1.4kbits/s speed=0.517x    frame=  133 fps= 12 q=49.0 size=       1kB time=00:00:04.25 bitrate=   1.4kbits/s speed=0.374x    frame=  134 fps= 10 q=49.0 size=       1kB time=00:00:04.29 bitrate=   1.4kbits/s speed=0.335x    frame=  140 fps= 10 q=49.0 size=       1kB time=00:00:04.54 bitrate=   1.3kbits/s speed=0.341x    frame=  161 fps= 12 q=49.0 size=    1355kB time=00:00:05.41 bitrate=2048.8kbits/s speed=0.391x    frame=  182 fps= 13 q=49.0 size=    1355kB time=00:00:06.29 bitrate=1763.9kbits/s speed=0.438x    frame=  203 fps= 14 q=49.0 size=    1355kB time=00:00:07.16 bitrate=1548.6kbits/s speed=0.482x    frame=  224 fps= 15 q=49.0 size=    1355kB time=00:00:08.04 bitrate=1380.1kbits/s speed=0.522x    frame=  245 fps= 15 q=49.0 size=    1355kB time=00:00:08.91 bitrate=1244.7kbits/s speed=0.561x    frame=  266 fps= 16 q=49.0 size=    1355kB time=00:00:09.79 bitrate=1133.5kbits/s speed=0.597x    frame=  287 fps= 17 q=49.0 size=    2614kB time=00:00:10.66 bitrate=2007.6kbits/s speed=0.63x    frame=  308 fps= 18 q=49.0 size=    2830kB time=00:00:11.54 bitrate=2008.4kbits/s speed=0.662x    frame=  329 fps= 18 q=49.0 size=    2830kB time=00:00:12.41 bitrate=1866.9kbits/s speed=0.691x    frame=  350 fps= 19 q=49.0 size=    2830kB time=00:00:13.29 bitrate=1744.0kbits/s speed=0.72x    frame=  371 fps= 20 q=49.0 size=    2830kB time=00:00:14.16 bitrate=1636.3kbits/s speed=0.747x    frame=  392 fps= 20 q=49.0 size=    2830kB time=00:00:15.04 bitrate=1541.1kbits/s speed=0.772x    frame=  413 fps= 21 q=49.0 size=    2830kB time=00:00:15.91 bitrate=1456.4kbits/s speed=0.796x    frame=  434 fps= 21 q=49.0 size=    3444kB time=00:00:16.79 bitrate=1680.2kbits/s speed=0.818x    frame=  455 fps= 22 q=49.0 size=    3635kB time=00:00:17.66 bitrate=1685.2kbits/s speed=0.84x    frame=  476 fps= 22 q=49.0 size=    3635kB time=00:00:18.54 bitrate=1605.7kbits/s speed=0.861x    frame=  497 fps= 23 q=49.0 size=    3635kB time=00:00:19.41 bitrate=1533.3kbits/s speed=0.881x    frame=  500 fps= 23 q=49.0 Lsize=    4077kB time=00:00:20.79 bitrate=1606.1kbits/s speed=0.938x    
video:4072kB audio:0kB subtitle:0kB other streams:0kB global headers:0kB muxing overhead: 0.107004%
bench: utime=0.968s
bench: maxrss=1188336kB
